<?xml version="1.0" encoding="UTF-8"?>
<svg width="50px" height="40px" viewBox="0 0 50 40" version="1.1" xmlns="http://www.w3.org/2000/svg" xmlns:xlink="http://www.w3.org/1999/xlink">
    <!-- Generator: Sketch 3.8.1 (29687) - http://www.bohemiancoding.com/sketch -->
    <title>logo</title>
    <desc>Created with Sketch.</desc>
    <defs></defs>
    <g id="Page-1" stroke="none" stroke-width="1" fill="none" fill-rule="evenodd">
        <g id="logo">
            <g id="communications">
                <g id="Group">
                    <path d="M43.9637827,39.2354125 L46.9818913,39.2354125 C48.6418511,39.2354125 50,37.8772636 50,36.2173038 L50,30.1810865 L43.9637827,24.1448692 L43.9637827,39.2354125 Z" id="Shape" fill="#ADACA7"></path>
                    <path d="M0,36.2173038 C0,37.8772636 1.35814889,39.2354125 3.01810865,39.2354125 L43.9637827,39.2354125 C45.6237425,39.2354125 46.9818913,37.8772636 46.9818913,36.2173038 L46.9818913,18.1086519 L0,30.1810865 L0,36.2173038 Z" id="Shape" fill="#CBC9C2"></path>
                    <path d="M46.9818913,0 L43.9637827,0 L46.9818913,30.1810865 L50,30.1810865 L50,3.01810865 C50,1.35814889 48.6418511,0 46.9818913,0 L46.9818913,0 Z" id="Shape" fill="#404242"></path>
                    <path d="M46.9818913,3.01810865 C46.9818913,1.35814889 45.6237425,0 43.9637827,0 L3.01810865,0 C1.35814889,0 0,1.35814889 0,3.01810865 L0,30.1810865 L46.9818913,30.1810865 L46.9818913,27.1629779 L25,15.0892354 L46.9818913,3.01810865 Z" id="Shape" fill="#565959"></path>
                    <path d="M46.9818913,3.01760563 L43.9643863,3.01549296 C43.9643863,3.01599598 25,15.0892354 25,15.0892354 C25,15.0892354 43.9639839,27.1627767 43.9637827,27.1629779 L46.9817907,27.1609658 C46.9818913,27.1609658 46.9815895,3.01800805 46.9818913,3.01760563 L46.9818913,3.01760563 Z" id="Shape" fill="#4B88D5"></path>
                    <path d="M43.9637827,3.01760563 L3.02696177,3.01539235 C3.02444668,3.0165996 3.022334,27.1624748 3.01810865,27.1629779 C3.01810865,27.1629779 43.9617706,27.1609658 43.9627767,27.1609658 C43.9632797,27.1609658 43.9595573,3.01800805 43.9637827,3.01760563 L43.9637827,3.01760563 Z" id="Shape" fill="#69A7FF"></path>
                    <ellipse id="Oval" fill="#FFFFFF" cx="25" cy="34.7082495" rx="1.50905433" ry="1.50905433"></ellipse>
                </g>
            </g>
            <g id="healthcare-and-medical" transform="translate(15.492958, 3.923541)" fill="#FFFFFF">
                <path d="M12.0792349,0.857706395 L9.5069132,0.857706395 L9.5069132,2.46588437 L11.2753521,2.46588437 L11.2753521,5.49462242 C11.2753521,8.15483762 9.11166114,10.3191994 6.45227041,10.3191994 C3.79287968,10.3191994 1.62923173,8.15488065 1.62923173,5.49466545 L1.62923173,2.46588437 L3.34411287,2.46588437 L3.34411287,0.857706395 L0.825391944,0.857706395 C0.381400166,0.857706395 0.0215521637,1.21766596 0.0215521637,1.66179538 L0.0215521637,5.49466545 C0.0215521637,9.04180552 2.9062727,11.9274204 6.45231343,11.9274204 C9.99835415,11.9274204 12.8830747,9.04180552 12.8830747,5.49466545 L12.8830747,1.66179538 C12.8830747,1.21766596 12.5232267,0.857706395 12.0792349,0.857706395 L12.0792349,0.857706395 Z" id="Shape"></path>
                <path d="M15.2141928,12.5974658 L15.2141928,16.4035272 C15.2141928,18.6204306 13.4111672,20.4240152 11.1949509,20.4240152 C8.97873462,20.4240152 7.17570901,18.6204306 7.17570901,16.4035272 L7.17570901,11.1500971 L5.56802944,11.1500971 L5.56802944,16.4035272 C5.56802944,19.5070542 8.09208463,22.0321932 11.1949509,22.0321932 C14.2975161,22.0321932 16.8218724,19.5070542 16.8218724,16.4035272 L16.8218724,12.5974658 L15.2141928,12.5974658 L15.2141928,12.5974658 Z" id="Shape"></path>
                <path d="M16.0183338,7.39765311 C14.3779603,7.39765311 13.043834,8.73219296 13.043834,10.3728168 C13.043834,12.0131824 14.3779603,13.3479805 16.0180756,13.3479805 C17.658191,13.3479805 18.9923173,12.0131824 18.9925754,10.3728168 C18.9925323,8.73219296 17.658191,7.39765311 16.0183338,7.39765311 L16.0183338,7.39765311 Z M16.0180756,11.7398025 C15.2643522,11.7398025 14.6512555,11.1265588 14.6512555,10.3728598 C14.6512555,9.61916086 15.2643092,9.00591714 16.0180756,9.00591714 C16.771541,9.00591714 17.3845947,9.61916086 17.3845947,10.3728598 C17.3845947,11.1265588 16.771541,11.7398025 16.0180756,11.7398025 L16.0180756,11.7398025 Z" id="Shape"></path>
                <path d="M3.31731247,0 C2.87332069,0 2.51347269,0.359959562 2.51347269,0.804088987 L2.51347269,2.51950178 C2.51347269,2.9636312 2.87332069,3.32359076 3.31731247,3.32359076 C3.76130425,3.32359076 4.12115225,2.9636312 4.12115225,2.51950178 L4.12115225,0.804088987 C4.12115225,0.359959562 3.76130425,0 3.31731247,0 L3.31731247,0 Z" id="Shape"></path>
                <path d="M9.53371359,0 C9.08972182,0 8.72987381,0.359959562 8.72987381,0.804088987 L8.72987381,2.51950178 C8.72987381,2.9636312 9.08972182,3.32359076 9.53371359,3.32359076 C9.97770537,3.32359076 10.3375534,2.9636312 10.3375534,2.51950178 L10.3375534,0.804088987 C10.3375534,0.359959562 9.97770537,0 9.53371359,0 L9.53371359,0 Z" id="Shape"></path>
            </g>
        </g>
    </g>
</svg>